<svg width="90px" height="90px" xmlns="http://www.w3.org/2000/svg" viewBox="0 0 100 100" preserveAspectRatio="xMidYMid" class="uil-default"><rect x="0" y="0" width="100" height="100" fill="none" class="bk"></rect><rect x="46.5" y="40" width="7" height="20" rx="5" ry="5" fill="#88898a" transform="rotate(0 50 50) translate(0 -30)">  <animate attributeName="opacity" from="1" to="0" dur="1s" begin="0s" repeatCount="indefinite"></animate></rect><rect x="46.5" y="40" width="7" height="20" rx="5" ry="5" fill="#88898a" transform="rotate(30 50 50) translate(0 -30)">  <animate attributeName="opacity" from="1" to="0" dur="1s" begin="0.0833s" repeatCount="indefinite"></animate></rect><rect x="46.5" y="40" width="7" height="20" rx="5" ry="5" fill="#88898a" transform="rotate(60 50 50) translate(0 -30)">  <animate attributeName="opacity" from="1" to="0" dur="1s" begin="0.1666s" repeatCount="indefinite"></animate></rect><rect x="46.5" y="40" width="7" height="20" rx="5" ry="5" fill="#88898a" transform="rotate(90 50 50) translate(0 -30)">  <animate attributeName="opacity" from="1" to="0" dur="1s" begin="0.25s" repeatCount="indefinite"></animate></rect><rect x="46.5" y="40" width="7" height="20" rx="5" ry="5" fill="#88898a" transform="rotate(120 50 50) translate(0 -30)">  <animate attributeName="opacity" from="1" to="0" dur="1s" begin="0.33s" repeatCount="indefinite"></animate></rect><rect x="46.5" y="40" width="7" height="20" rx="5" ry="5" fill="#88898a" transform="rotate(150 50 50) translate(0 -30)">  <animate attributeName="opacity" from="1" to="0" dur="1s" begin="0.4166666666666667s" repeatCount="indefinite"></animate></rect><rect x="46.5" y="40" width="7" height="20" rx="5" ry="5" fill="#88898a" transform="rotate(180 50 50) translate(0 -30)">  <animate attributeName="opacity" from="1" to="0" dur="1s" begin="0.5s" repeatCount="indefinite"></animate></rect><rect x="46.5" y="40" width="7" height="20" rx="5" ry="5" fill="#88898a" transform="rotate(210 50 50) translate(0 -30)">  <animate attributeName="opacity" from="1" to="0" dur="1s" begin="0.5833s" repeatCount="indefinite"></animate></rect><rect x="46.5" y="40" width="7" height="20" rx="5" ry="5" fill="#88898a" transform="rotate(240 50 50) translate(0 -30)">  <animate attributeName="opacity" from="1" to="0" dur="1s" begin="0.666s" repeatCount="indefinite"></animate></rect><rect x="46.5" y="40" width="7" height="20" rx="5" ry="5" fill="#88898a" transform="rotate(270 50 50) translate(0 -30)">  <animate attributeName="opacity" from="1" to="0" dur="1s" begin="0.75s" repeatCount="indefinite"></animate></rect><rect x="46.5" y="40" width="7" height="20" rx="5" ry="5" fill="#88898a" transform="rotate(300 50 50) translate(0 -30)">  <animate attributeName="opacity" from="1" to="0" dur="1s" begin="0.833s" repeatCount="indefinite"></animate></rect><rect x="46.5" y="40" width="7" height="20" rx="5" ry="5" fill="#88898a" transform="rotate(330 50 50) translate(0 -30)">  <animate attributeName="opacity" from="1" to="0" dur="1s" begin="0.9166666666666666s" repeatCount="indefinite"></animate></rect></svg>