<?xml version="1.0" encoding="utf-8"?>
<!-- Generator: Adobe Illustrator 21.1.0, SVG Export Plug-In . SVG Version: 6.00 Build 0)  -->
<svg version="1.1" id="Layer_1" xmlns="http://www.w3.org/2000/svg" xmlns:xlink="http://www.w3.org/1999/xlink" x="0px" y="0px"
	 viewBox="0 0 452.2 115.1" style="enable-background:new 0 0 452.2 115.1;" xml:space="preserve">
<style type="text/css">
	.st0{fill:#F05555;}
	.st1{fill:#44478A;}
	.st2{fill:#5F66AF;}
	.st3{fill:#1093C4;}
</style>
<g>
	<g>
		<g>
			<g>
				<path class="st0" d="M81.6,64.9V54.6H87v10.2l8.8-5.1l2.8,4.7l-8.8,5.1l8.8,5.1l-2.7,4.8L87,74.2v10.1h-5.4V74.2l-9,5.1
					l-2.6-4.8l8.7-5.1l-8.7-5.1l2.8-4.7L81.6,64.9z"/>
			</g>
			<polygon class="st1" points="86.9,9.5 9.6,9.6 9.6,28.2 38.7,69.4 			"/>
			<polygon class="st2" points="9.5,105.6 64.2,105.6 38.7,69.4 			"/>
			<polygon class="st3" points="9.6,28.2 9.5,105.6 38.7,69.4 			"/>
		</g>
	</g>
	<g>
		<path class="st3" d="M149.4,90.8V67.8l-7.4,15h-5.1l-7.5-15v23.1h-7.6V51.3h7.5l10.2,21.4l10.1-21.4h7.5v39.5H149.4z"/>
		<path class="st3" d="M173.3,90.8V51.3h7.6v39.5H173.3z"/>
		<path class="st3" d="M220.2,90.8l-15.4-24.3v24.3h-7.6V51.3h6.8l15.4,24.2V51.3h7.6v39.5H220.2z"/>
		<path class="st3" d="M266.3,90.8l-15.4-24.3v24.3h-7.6V51.3h6.8l15.4,24.2V51.3h7.6v39.5H266.3z"/>
		<path class="st3" d="M289.4,90.8V51.3H315v6.9h-18v9.3h15.4v6.9H297v9.6h18v6.9H289.4z"/>
		<path class="st1" d="M347.8,90.8h-16.3V51.3h15.6c7.6,0,12,4.3,12,11.1c0,4.4-2.8,7.2-4.8,8.2c2.4,1.1,5.4,3.6,5.4,8.9
			C359.7,86.8,354.7,90.8,347.8,90.8z M346.5,58.2h-7.4v9.1h7.4c3.2,0,5-1.8,5-4.6C351.5,60,349.7,58.2,346.5,58.2z M347,74.2h-7.9
			v9.7h7.9c3.4,0,5.1-2.2,5.1-4.9S350.4,74.2,347,74.2z"/>
		<path class="st1" d="M395,90.8l-2.3-7h-13.8l-2.4,7h-7.9l14.2-39.5h6L403,90.8H395z M386,62.9L381,77.3h9.7L386,62.9z"/>
		<path class="st1" d="M433.9,90.8h8.8l-8.7-17c0,0,3.1-1.6,4.2-2.7c1.7-1.8,2.9-4.4,2.9-7.7c0-6.6-4.7-12.1-12.6-12.1h-15.3v39.6
			h7.6V80.4l6.5-3.3L433.9,90.8z M420.8,58.2h7.2c3.3,0,5.5,2.2,5.5,5.2c0,2.6-0.8,3.5-5.8,5.9l-6.9,3.1V58.2z"/>
	</g>
</g>
</svg>
